<mxfile host="app.diagrams.net" modified="2023-06-09T20:14:23.342Z" agent="Mozilla/5.0 (Windows NT 10.0; Win64; x64) AppleWebKit/537.36 (KHTML, like Gecko) Chrome/114.0.0.0 Safari/537.36" etag="Ku2rFVnw5QF6RGuLMHxz" version="21.3.8" type="github" pages="2">
  <diagram name="Container" id="v48tI_cbrsgO7j5zE3Fv">
    <mxGraphModel dx="1290" dy="541" grid="1" gridSize="10" guides="1" tooltips="1" connect="1" arrows="1" fold="1" page="1" pageScale="1" pageWidth="850" pageHeight="1100" math="0" shadow="0">
      <root>
        <mxCell id="0" />
        <mxCell id="1" parent="0" />
        <mxCell id="7KVQHCWxVWXXJRR8kHyW-12" value="" style="rounded=0;whiteSpace=wrap;html=1;points=[[0,0,0,0,0],[0,0.25,0,0,0],[0,0.5,0,0,0],[0,0.75,0,0,0],[0,1,0,0,0],[0.25,0,0,0,0],[0.25,1,0,0,0],[0.5,0,0,0,0],[0.5,1,0,0,0],[0.75,0,0,0,0],[0.75,1,0,0,0],[1,0,0,0,0],[1,0.25,0,0,0],[1,0.5,0,0,0],[1,0.75,0,0,0],[1,1,0,0,0]];strokeColor=#309FFF;shadow=0;" vertex="1" parent="1">
          <mxGeometry x="120" y="90" width="360" height="410" as="geometry" />
        </mxCell>
        <mxCell id="7KVQHCWxVWXXJRR8kHyW-1" value="" style="rounded=0;whiteSpace=wrap;html=1;fillColor=#A1FFF9;" vertex="1" parent="1">
          <mxGeometry x="180" y="100" width="190" height="60" as="geometry" />
        </mxCell>
        <mxCell id="7KVQHCWxVWXXJRR8kHyW-2" value="&lt;font style=&quot;font-size: 18px;&quot;&gt;&lt;b style=&quot;&quot;&gt;Chrome&lt;/b&gt;&lt;/font&gt;" style="rounded=0;whiteSpace=wrap;html=1;" vertex="1" parent="1">
          <mxGeometry x="215" y="115" width="120" height="30" as="geometry" />
        </mxCell>
        <mxCell id="7KVQHCWxVWXXJRR8kHyW-4" value="" style="endArrow=classic;html=1;rounded=0;exitX=0.44;exitY=1.043;exitDx=0;exitDy=0;exitPerimeter=0;" edge="1" parent="1" source="7KVQHCWxVWXXJRR8kHyW-1">
          <mxGeometry width="50" height="50" relative="1" as="geometry">
            <mxPoint x="300" y="240" as="sourcePoint" />
            <mxPoint x="264" y="220" as="targetPoint" />
          </mxGeometry>
        </mxCell>
        <mxCell id="7KVQHCWxVWXXJRR8kHyW-5" value="&lt;font style=&quot;font-size: 18px;&quot;&gt;&lt;b&gt;Kernel&lt;/b&gt;&lt;/font&gt;" style="rounded=0;whiteSpace=wrap;html=1;" vertex="1" parent="1">
          <mxGeometry x="170" y="220" width="500" height="60" as="geometry" />
        </mxCell>
        <mxCell id="7KVQHCWxVWXXJRR8kHyW-6" value="" style="endArrow=classic;html=1;rounded=0;exitX=0.44;exitY=1.043;exitDx=0;exitDy=0;exitPerimeter=0;" edge="1" parent="1">
          <mxGeometry width="50" height="50" relative="1" as="geometry">
            <mxPoint x="260" y="280" as="sourcePoint" />
            <mxPoint x="260" y="337" as="targetPoint" />
          </mxGeometry>
        </mxCell>
        <mxCell id="7KVQHCWxVWXXJRR8kHyW-7" value="Hard Drive" style="rounded=0;whiteSpace=wrap;html=1;fillColor=#66FFFF;" vertex="1" parent="1">
          <mxGeometry x="170" y="350" width="120" height="60" as="geometry" />
        </mxCell>
        <mxCell id="7KVQHCWxVWXXJRR8kHyW-8" value="Network" style="rounded=0;whiteSpace=wrap;html=1;fillColor=#66FFFF;" vertex="1" parent="1">
          <mxGeometry x="300" y="350" width="120" height="60" as="geometry" />
        </mxCell>
        <mxCell id="7KVQHCWxVWXXJRR8kHyW-10" value="RAM" style="rounded=0;whiteSpace=wrap;html=1;fillColor=#00FFFF;" vertex="1" parent="1">
          <mxGeometry x="170" y="420" width="120" height="70" as="geometry" />
        </mxCell>
        <mxCell id="7KVQHCWxVWXXJRR8kHyW-11" value="CPU" style="rounded=0;whiteSpace=wrap;html=1;fillColor=#00FFFF;" vertex="1" parent="1">
          <mxGeometry x="300" y="420" width="120" height="70" as="geometry" />
        </mxCell>
        <mxCell id="7KVQHCWxVWXXJRR8kHyW-14" value="&lt;b&gt;&lt;font style=&quot;font-size: 18px; background-color: rgb(153, 204, 255);&quot;&gt;Container&lt;/font&gt;&lt;/b&gt;" style="rounded=0;whiteSpace=wrap;html=1;strokeColor=#FFFFFF;fillColor=#FFFFFF;" vertex="1" parent="1">
          <mxGeometry x="210" y="20" width="120" height="40" as="geometry" />
        </mxCell>
        <mxCell id="1rD_wFM_01wXovdleEEi-1" value="&lt;font style=&quot;font-size: 18px;&quot;&gt;Image&lt;/font&gt;" style="rounded=0;whiteSpace=wrap;html=1;" vertex="1" parent="1">
          <mxGeometry x="560" y="370" width="260" height="60" as="geometry" />
        </mxCell>
        <mxCell id="1rD_wFM_01wXovdleEEi-3" value="FS SNAPSHOT" style="rounded=0;whiteSpace=wrap;html=1;" vertex="1" parent="1">
          <mxGeometry x="560" y="430" width="130" height="60" as="geometry" />
        </mxCell>
        <mxCell id="1rD_wFM_01wXovdleEEi-4" value="STARTUP COMMAND" style="rounded=0;whiteSpace=wrap;html=1;" vertex="1" parent="1">
          <mxGeometry x="690" y="430" width="130" height="60" as="geometry" />
        </mxCell>
        <mxCell id="1rD_wFM_01wXovdleEEi-6" value="" style="rounded=0;whiteSpace=wrap;html=1;" vertex="1" parent="1">
          <mxGeometry x="560" y="490" width="130" height="60" as="geometry" />
        </mxCell>
        <mxCell id="1rD_wFM_01wXovdleEEi-7" value="" style="rounded=0;whiteSpace=wrap;html=1;" vertex="1" parent="1">
          <mxGeometry x="690" y="490" width="130" height="60" as="geometry" />
        </mxCell>
        <mxCell id="1rD_wFM_01wXovdleEEi-8" value="Chrome" style="rounded=0;whiteSpace=wrap;html=1;" vertex="1" parent="1">
          <mxGeometry x="570" y="500" width="50" height="30" as="geometry" />
        </mxCell>
        <mxCell id="1rD_wFM_01wXovdleEEi-9" value="&amp;gt;&amp;nbsp; Run Chrome" style="rounded=0;whiteSpace=wrap;html=1;" vertex="1" parent="1">
          <mxGeometry x="700" y="505" width="100" height="25" as="geometry" />
        </mxCell>
        <mxCell id="1rD_wFM_01wXovdleEEi-10" value="Python" style="rounded=0;whiteSpace=wrap;html=1;" vertex="1" parent="1">
          <mxGeometry x="620" y="500" width="60" height="30" as="geometry" />
        </mxCell>
        <mxCell id="1rD_wFM_01wXovdleEEi-11" value="" style="endArrow=classic;html=1;rounded=0;exitX=0;exitY=0.25;exitDx=0;exitDy=0;entryX=0.997;entryY=0.665;entryDx=0;entryDy=0;entryPerimeter=0;" edge="1" parent="1" source="1rD_wFM_01wXovdleEEi-6" target="7KVQHCWxVWXXJRR8kHyW-12">
          <mxGeometry width="50" height="50" relative="1" as="geometry">
            <mxPoint x="400" y="500" as="sourcePoint" />
            <mxPoint x="450" y="450" as="targetPoint" />
          </mxGeometry>
        </mxCell>
        <mxCell id="1rD_wFM_01wXovdleEEi-12" value="" style="rounded=0;whiteSpace=wrap;html=1;" vertex="1" parent="1">
          <mxGeometry x="230" y="390" width="130" height="60" as="geometry" />
        </mxCell>
        <mxCell id="1rD_wFM_01wXovdleEEi-13" value="Chrome" style="rounded=0;whiteSpace=wrap;html=1;" vertex="1" parent="1">
          <mxGeometry x="240" y="400" width="50" height="30" as="geometry" />
        </mxCell>
        <mxCell id="1rD_wFM_01wXovdleEEi-14" value="Python" style="rounded=0;whiteSpace=wrap;html=1;" vertex="1" parent="1">
          <mxGeometry x="290" y="400" width="60" height="30" as="geometry" />
        </mxCell>
      </root>
    </mxGraphModel>
  </diagram>
  <diagram id="Ej_JVgxOXVgDSJfF1CKS" name="Page-2">
    <mxGraphModel dx="1290" dy="541" grid="1" gridSize="10" guides="1" tooltips="1" connect="1" arrows="1" fold="1" page="1" pageScale="1" pageWidth="850" pageHeight="1100" math="0" shadow="0">
      <root>
        <mxCell id="0" />
        <mxCell id="1" parent="0" />
      </root>
    </mxGraphModel>
  </diagram>
</mxfile>
